<?xml version="1.0" encoding="UTF-8"?>
<svg id="Layer_2" data-name="Layer 2" xmlns="http://www.w3.org/2000/svg" width="35.98mm" height="11.35mm" viewBox="0 0 102 32.16">
  <g id="_레이어_1" data-name="레이어 1">
    <g>
      <path d="M21.93,32.08l-7.07-12.51-4.76,5.1v7.41H0V.77h10.1v11.84L20.16.77h12.32l-11.1,11.89,11.92,19.43h-11.37Z" style="fill: #fff;"/>
      <path d="M58.05,32.16V15.5c0-.71,0-1.35-.18-2.06-.29-1.06-1.18-2.53-3.94-2.53-4.47,0-4.41,3.71-4.41,5v16.25h-12.07V1.67h11.42v4.06c.76-1.12.88-1.24,1.47-1.82,2.24-2.24,5.47-3.06,8.59-3.06,1.12,0,4.89.06,7.77,2.53,1.59,1.29,2.59,3.3,3.06,5.3.23,1,.41,2.06.41,4.24v19.25h-12.12Z" style="fill: #fff;"/>
      <path d="M76.7,32.16V0h10.16v24.05h15.14v8.11h-25.3Z" style="fill: #fff;"/>
    </g>
  </g>
</svg>